<?xml version="1.0" encoding="UTF-8"?><svg id="Layer_2" xmlns="http://www.w3.org/2000/svg" viewBox="0 0 60.66 70.03"><g id="Layer_1-2"><path d="M30.27,.28c8.65,0,17.31,.08,25.96-.04,2.99-.04,4.11,1.01,4.11,4.05,.01,12.14,.29,24.28,.32,36.42,.02,8.75-4.43,15.38-11.34,20.01-5.33,3.57-11.4,6.07-17.19,8.93-.8,.39-2.08,.54-2.84,.17-6.1-2.99-12.49-5.59-18.09-9.35C3.43,55.26-.45,47.84,.07,37.94,.64,27.15,.23,16.31,0,5.5-.08,1.54,1-.15,5.31,.01,13.62,.32,21.95,.1,30.27,.1c0,.06,0,.12,0,.18Zm18.96,24.07c-.5,.43-1,.87-1.49,1.3,.23,.21,.43,.53,.7,.62,2.69,.93,4.76,2.78,3.22,5.48-.61,1.07-3.79,.91-5.8,.88-2.77-.05-5.52-.58-8.29-.77-1.91-.13-3.84-.02-6.41-.02,.44-1.93,.99-3.29,1.02-4.66,.07-3.92,.18-7.82-4.2-10.09-3.97-2.06-7.1-1.32-9.54,2.16-.95,1.35-1.23,3.17-1.82,4.78,1.34,.39,7.93-.65,9.42-.23-1.17,1.1-7.54,3.58-8.82,4.79,1.22,.2,1.94,.31,2.71,.44-3.01,1.61-5.74,3.07-9.27,4.95-1.19-2.03-2.65-4.52-4.11-7.02-3.97,5.18-1.01,9.2,11.03,14.28-1.44,1.5-2.61,2.79-3.87,3.99-.78,.74-1.71,1.33-2.58,1.99,1.2,.39,2.43,1.17,3.59,1.08,1.23-.09,3.04-.69,3.48-1.6,3.12-6.47,9.62-5.19,15.42-7.45,0,2.36,.68,5.04-.14,5.62-1.87,1.34-4.47,1.66-6.78,2.39,1.77,.94,3.73,1.33,5.69,1.37,5.87,.12,3.97-6.55,7.53-8.68,4.56,1.34,9.14,2.68,14.67,4.3-2.32,1.81-3.3,2.56-4.27,3.32,.32,.51,.64,1.03,.96,1.54,1.77-1.1,4.53-1.82,5.11-3.37,1.11-2.93-.84-4.75-3.99-5.43-1.85-.4-3.54-1.53-4.19-1.83,2.1-3.3,4.51-5.92,5.34-8.97,.34-1.23-2.78-3.4-4.32-5.14Zm-7.17-1.11c-.16-.7-.32-1.4-.47-2.11-1.65,.57-3.41,.95-4.88,1.83-.43,.26-.32,2.67,.06,2.83,2.17,.89,4.5,1.4,6.78,2.04,.09-.38,.17-.76,.26-1.14-2.19-.47-4.39-.93-6.58-1.4,.1-.41,.19-.82,.29-1.23,1.51-.28,3.03-.55,4.54-.83Z"/></g></svg>