<svg xmlns="http://www.w3.org/2000/svg" viewBox="0 0 250 271.99"><g id="Layer_2" data-name="Layer 2"><g id="Layer_1-2" data-name="Layer 1"><path d="M117.7,67.7V59.08l-7.78-7.78h26.8L123,37.58V30.33a15.2,15.2,0,1,0-3,0v8.49l9.48,9.48h-26.8l12,12V67.7H0V272H250V67.7ZM38,140.7a31,31,0,1,1,31,31A31,31,0,0,1,38,140.7Zm153.56,80.57h-9.17l-6.23,10.07-6.59-17.47L162,234l-8.57-22.7-9.14,24.23-10.55-27.94-10.21,27.07L115,211.9,106.22,235,97,210.59,86.78,237.66,77.3,212.55l-7.43,13.63H58.44v-3h9.65l9.71-17.81,9,23.8L97,202.1l9.23,24.45L115,203.41l8.57,22.7L133.73,199,144.28,227l9.14-24.23,8.57,22.7,7.58-20.08,7.25,19.21,3.9-6.31h10.84ZM174,171.7a31,31,0,1,1,31-31A31,31,0,0,1,174,171.7Z"/></g></g></svg>