<svg xmlns="http://www.w3.org/2000/svg" viewBox="0 0 260.46 258.63"><defs><style>.cls-1{fill:#FFFFCC;}</style></defs><g id="Layer_2" data-name="Layer 2"><g id="Layer_1-2" data-name="Layer 1"><path class="cls-1" d="M198.36,134l62.1,13.38L188.82,96.59l59.47-22.32-87.75-4,38-50.94-76,44.06L126.91,0,86.8,78.15,56.24,22.46l8.51,87.43L8.93,79.56l54.42,68.95L0,153.17l83.06,28.58L32.29,219.93l85.33-20.86L95.54,258.63,156,195l13.64,62,16.46-86.28,45,44.82Zm-49.08,30.12-16.47-6.1-4.24,11.45-10.55-14-9.76,7.34L107,145.3l-12.18.89,8.39-15.43-10.73-5.82,15.39-8.45L102,105.79,119.48,107l.85-12.18,14.08,10.49,7.29-9.78L147.87,112l11.43-4.29-3.69,17.17,11.93,2.57-12.39,12.44,8.66,8.62-17.15,3.77Z"/></g></g></svg>
