<?xml version="1.0" encoding="UTF-8"?><svg id="Layer_2" xmlns="http://www.w3.org/2000/svg" xmlns:xlink="http://www.w3.org/1999/xlink" viewBox="0 0 2159.2 1380.36"><defs><style>.cls-1{fill:none;}.cls-2{fill:url(#linear-gradient);}.cls-3{clip-path:url(#clippath);}.cls-4{fill:#fff;}.cls-5{fill:url(#linear-gradient-179);}.cls-6{fill:url(#linear-gradient-178);}.cls-7{fill:url(#linear-gradient-177);}.cls-8{fill:url(#linear-gradient-176);}.cls-9{fill:url(#linear-gradient-137);}.cls-10{fill:url(#linear-gradient-133);}.cls-11{fill:url(#linear-gradient-132);}.cls-12{fill:url(#linear-gradient-130);}.cls-13{fill:url(#linear-gradient-135);}.cls-14{fill:url(#linear-gradient-131);}.cls-15{fill:url(#linear-gradient-136);}.cls-16{fill:url(#linear-gradient-134);}.cls-17{fill:url(#linear-gradient-139);}.cls-18{fill:url(#linear-gradient-138);}.cls-19{fill:url(#linear-gradient-188);}.cls-20{fill:url(#linear-gradient-182);}.cls-21{fill:url(#linear-gradient-183);}.cls-22{fill:url(#linear-gradient-181);}.cls-23{fill:url(#linear-gradient-186);}.cls-24{fill:url(#linear-gradient-187);}.cls-25{fill:url(#linear-gradient-184);}.cls-26{fill:url(#linear-gradient-185);}.cls-27{fill:url(#linear-gradient-180);}.cls-28{fill:url(#linear-gradient-117);}.cls-29{fill:url(#linear-gradient-118);}.cls-30{fill:url(#linear-gradient-111);}.cls-31{fill:url(#linear-gradient-112);}.cls-32{fill:url(#linear-gradient-127);}.cls-33{fill:url(#linear-gradient-128);}.cls-34{fill:url(#linear-gradient-110);}.cls-35{fill:url(#linear-gradient-113);}.cls-36{fill:url(#linear-gradient-114);}.cls-37{fill:url(#linear-gradient-115);}.cls-38{fill:url(#linear-gradient-116);}.cls-39{fill:url(#linear-gradient-119);}.cls-40{fill:url(#linear-gradient-106);}.cls-41{fill:url(#linear-gradient-107);}.cls-42{fill:url(#linear-gradient-109);}.cls-43{fill:url(#linear-gradient-108);}.cls-44{fill:url(#linear-gradient-104);}.cls-45{fill:url(#linear-gradient-103);}.cls-46{fill:url(#linear-gradient-102);}.cls-47{fill:url(#linear-gradient-105);}.cls-48{fill:url(#linear-gradient-123);}.cls-49{fill:url(#linear-gradient-129);}.cls-50{fill:url(#linear-gradient-122);}.cls-51{fill:url(#linear-gradient-121);}.cls-52{fill:url(#linear-gradient-101);}.cls-53{fill:url(#linear-gradient-100);}.cls-54{fill:url(#linear-gradient-191);}.cls-55{fill:url(#linear-gradient-193);}.cls-56{fill:url(#linear-gradient-198);}.cls-57{fill:url(#linear-gradient-192);}.cls-58{fill:url(#linear-gradient-190);}.cls-59{fill:url(#linear-gradient-199);}.cls-60{fill:url(#linear-gradient-197);}.cls-61{fill:url(#linear-gradient-196);}.cls-62{fill:url(#linear-gradient-195);}.cls-63{fill:url(#linear-gradient-194);}.cls-64{fill:url(#linear-gradient-189);}.cls-65{fill:url(#linear-gradient-126);}.cls-66{fill:url(#linear-gradient-125);}.cls-67{fill:url(#linear-gradient-124);}.cls-68{fill:url(#linear-gradient-120);}.cls-69{fill:url(#linear-gradient-157);}.cls-70{fill:url(#linear-gradient-154);}.cls-71{fill:url(#linear-gradient-152);}.cls-72{fill:url(#linear-gradient-155);}.cls-73{fill:url(#linear-gradient-151);}.cls-74{fill:url(#linear-gradient-156);}.cls-75{fill:url(#linear-gradient-150);}.cls-76{fill:url(#linear-gradient-153);}.cls-77{fill:url(#linear-gradient-164);}.cls-78{fill:url(#linear-gradient-161);}.cls-79{fill:url(#linear-gradient-163);}.cls-80{fill:url(#linear-gradient-165);}.cls-81{fill:url(#linear-gradient-167);}.cls-82{fill:url(#linear-gradient-162);}.cls-83{fill:url(#linear-gradient-160);}.cls-84{fill:url(#linear-gradient-159);}.cls-85{fill:url(#linear-gradient-158);}.cls-86{fill:url(#linear-gradient-144);}.cls-87{fill:url(#linear-gradient-145);}.cls-88{fill:url(#linear-gradient-148);}.cls-89{fill:url(#linear-gradient-149);}.cls-90{fill:url(#linear-gradient-171);}.cls-91{fill:url(#linear-gradient-146);}.cls-92{fill:url(#linear-gradient-143);}.cls-93{fill:url(#linear-gradient-169);}.cls-94{fill:url(#linear-gradient-141);}.cls-95{fill:url(#linear-gradient-140);}.cls-96{fill:url(#linear-gradient-147);}.cls-97{fill:url(#linear-gradient-142);}.cls-98{fill:url(#linear-gradient-168);}.cls-99{fill:url(#linear-gradient-166);}.cls-100{fill:url(#linear-gradient-174);}.cls-101{fill:url(#linear-gradient-172);}.cls-102{fill:url(#linear-gradient-175);}.cls-103{fill:url(#linear-gradient-170);}.cls-104{fill:url(#linear-gradient-173);}.cls-105{fill:url(#linear-gradient-8);}.cls-106{fill:url(#linear-gradient-9);}.cls-107{fill:url(#linear-gradient-3);}.cls-108{fill:url(#linear-gradient-4);}.cls-109{fill:url(#linear-gradient-2);}.cls-110{fill:url(#linear-gradient-6);}.cls-111{fill:url(#linear-gradient-7);}.cls-112{fill:url(#linear-gradient-5);}.cls-113{fill:url(#linear-gradient-59);}.cls-114{fill:url(#linear-gradient-57);}.cls-115{fill:url(#linear-gradient-58);}.cls-116{fill:url(#linear-gradient-55);}.cls-117{fill:url(#linear-gradient-56);}.cls-118{fill:url(#linear-gradient-53);}.cls-119{fill:url(#linear-gradient-54);}.cls-120{fill:url(#linear-gradient-51);}.cls-121{fill:url(#linear-gradient-52);}.cls-122{fill:url(#linear-gradient-50);}.cls-123{fill:url(#linear-gradient-77);}.cls-124{fill:url(#linear-gradient-78);}.cls-125{fill:url(#linear-gradient-79);}.cls-126{fill:url(#linear-gradient-74);}.cls-127{fill:url(#linear-gradient-75);}.cls-128{fill:url(#linear-gradient-76);}.cls-129{fill:url(#linear-gradient-70);}.cls-130{fill:url(#linear-gradient-71);}.cls-131{fill:url(#linear-gradient-72);}.cls-132{fill:url(#linear-gradient-73);}.cls-133{fill:url(#linear-gradient-68);}.cls-134{fill:url(#linear-gradient-67);}.cls-135{fill:url(#linear-gradient-69);}.cls-136{fill:url(#linear-gradient-64);}.cls-137{fill:url(#linear-gradient-63);}.cls-138{fill:url(#linear-gradient-66);}.cls-139{fill:url(#linear-gradient-65);}.cls-140{fill:url(#linear-gradient-60);}.cls-141{fill:url(#linear-gradient-62);}.cls-142{fill:url(#linear-gradient-61);}.cls-143{fill:url(#linear-gradient-98);}.cls-144{fill:url(#linear-gradient-91);}.cls-145{fill:url(#linear-gradient-95);}.cls-146{fill:url(#linear-gradient-99);}.cls-147{fill:url(#linear-gradient-96);}.cls-148{fill:url(#linear-gradient-97);}.cls-149{fill:url(#linear-gradient-94);}.cls-150{fill:url(#linear-gradient-92);}.cls-151{fill:url(#linear-gradient-93);}.cls-152{fill:url(#linear-gradient-90);}.cls-153{fill:url(#linear-gradient-81);}.cls-154{fill:url(#linear-gradient-80);}.cls-155{fill:url(#linear-gradient-88);}.cls-156{fill:url(#linear-gradient-89);}.cls-157{fill:url(#linear-gradient-87);}.cls-158{fill:url(#linear-gradient-86);}.cls-159{fill:url(#linear-gradient-85);}.cls-160{fill:url(#linear-gradient-84);}.cls-161{fill:url(#linear-gradient-83);}.cls-162{fill:url(#linear-gradient-82);}.cls-163{fill:url(#linear-gradient-41);}.cls-164{fill:url(#linear-gradient-40);}.cls-165{fill:url(#linear-gradient-43);}.cls-166{fill:url(#linear-gradient-42);}.cls-167{fill:url(#linear-gradient-45);}.cls-168{fill:url(#linear-gradient-46);}.cls-169{fill:url(#linear-gradient-44);}.cls-170{fill:url(#linear-gradient-49);}.cls-171{fill:url(#linear-gradient-47);}.cls-172{fill:url(#linear-gradient-48);}.cls-173{fill:url(#linear-gradient-14);}.cls-174{fill:url(#linear-gradient-18);}.cls-175{fill:url(#linear-gradient-22);}.cls-176{fill:url(#linear-gradient-20);}.cls-177{fill:url(#linear-gradient-21);}.cls-178{fill:url(#linear-gradient-23);}.cls-179{fill:url(#linear-gradient-15);}.cls-180{fill:url(#linear-gradient-19);}.cls-181{fill:url(#linear-gradient-16);}.cls-182{fill:url(#linear-gradient-17);}.cls-183{fill:url(#linear-gradient-13);}.cls-184{fill:url(#linear-gradient-12);}.cls-185{fill:url(#linear-gradient-10);}.cls-186{fill:url(#linear-gradient-11);}.cls-187{fill:url(#linear-gradient-27);}.cls-188{fill:url(#linear-gradient-24);}.cls-189{fill:url(#linear-gradient-26);}.cls-190{fill:url(#linear-gradient-38);}.cls-191{fill:url(#linear-gradient-35);}.cls-192{fill:url(#linear-gradient-37);}.cls-193{fill:url(#linear-gradient-34);}.cls-194{fill:url(#linear-gradient-39);}.cls-195{fill:url(#linear-gradient-36);}.cls-196{fill:url(#linear-gradient-25);}.cls-197{fill:url(#linear-gradient-28);}.cls-198{fill:url(#linear-gradient-29);}.cls-199{fill:url(#linear-gradient-33);}.cls-200{fill:url(#linear-gradient-30);}.cls-201{fill:url(#linear-gradient-32);}.cls-202{fill:url(#linear-gradient-31);}</style><clipPath id="clippath"><rect class="cls-1" x="70" y="68.16" width="2089.2" height="1249.76"/></clipPath><linearGradient id="linear-gradient" x1="42.28" y1="87.19" x2="129.47" y2="87.19" gradientUnits="userSpaceOnUse"><stop offset="0" stop-color="#e2a379"/><stop offset=".32" stop-color="#de9f76"/><stop offset=".59" stop-color="#d5956c"/><stop offset=".84" stop-color="#c5835d"/><stop offset="1" stop-color="#b7744f"/></linearGradient><linearGradient id="linear-gradient-2" y1="212.15" y2="212.15" xlink:href="#linear-gradient"/><linearGradient id="linear-gradient-3" y1="337.11" y2="337.11" xlink:href="#linear-gradient"/><linearGradient id="linear-gradient-4" y1="462.06" y2="462.06" xlink:href="#linear-gradient"/><linearGradient id="linear-gradient-5" y1="587.02" y2="587.02" xlink:href="#linear-gradient"/><linearGradient id="linear-gradient-6" y1="711.98" y2="711.98" xlink:href="#linear-gradient"/><linearGradient id="linear-gradient-7" y1="836.94" y2="836.94" xlink:href="#linear-gradient"/><linearGradient id="linear-gradient-8" y1="961.89" y2="961.89" xlink:href="#linear-gradient"/><linearGradient id="linear-gradient-9" y1="1086.85" y2="1086.85" xlink:href="#linear-gradient"/><linearGradient id="linear-gradient-10" y1="1211.81" y2="1211.81" xlink:href="#linear-gradient"/><linearGradient id="linear-gradient-11" y1="1336.77" y2="1336.77" xlink:href="#linear-gradient"/><linearGradient id="linear-gradient-12" x1="272.15" x2="359.34" xlink:href="#linear-gradient"/><linearGradient id="linear-gradient-13" x1="272.15" y1="212.15" x2="359.34" y2="212.15" xlink:href="#linear-gradient"/><linearGradient id="linear-gradient-14" x1="272.15" y1="337.11" x2="359.34" y2="337.11" xlink:href="#linear-gradient"/><linearGradient id="linear-gradient-15" x1="272.15" y1="462.06" x2="359.34" y2="462.06" xlink:href="#linear-gradient"/><linearGradient id="linear-gradient-16" x1="272.15" y1="587.02" x2="359.34" y2="587.02" xlink:href="#linear-gradient"/><linearGradient id="linear-gradient-17" x1="272.15" y1="711.98" x2="359.34" y2="711.98" xlink:href="#linear-gradient"/><linearGradient id="linear-gradient-18" x1="272.15" y1="836.94" x2="359.34" y2="836.94" xlink:href="#linear-gradient"/><linearGradient id="linear-gradient-19" x1="272.15" y1="961.89" x2="359.34" y2="961.89" xlink:href="#linear-gradient"/><linearGradient id="linear-gradient-20" x1="272.15" y1="1086.85" x2="359.34" y2="1086.85" xlink:href="#linear-gradient"/><linearGradient id="linear-gradient-21" x1="272.15" y1="1211.81" x2="359.34" y2="1211.81" xlink:href="#linear-gradient"/><linearGradient id="linear-gradient-22" x1="272.15" y1="1336.77" x2="359.34" y2="1336.77" xlink:href="#linear-gradient"/><linearGradient id="linear-gradient-23" x1="502.02" x2="589.21" xlink:href="#linear-gradient"/><linearGradient id="linear-gradient-24" x1="502.02" y1="212.15" x2="589.21" y2="212.15" xlink:href="#linear-gradient"/><linearGradient id="linear-gradient-25" x1="502.02" y1="337.11" x2="589.21" y2="337.11" xlink:href="#linear-gradient"/><linearGradient id="linear-gradient-26" x1="502.02" y1="462.06" x2="589.21" y2="462.06" xlink:href="#linear-gradient"/><linearGradient id="linear-gradient-27" x1="502.02" y1="587.02" x2="589.21" y2="587.02" xlink:href="#linear-gradient"/><linearGradient id="linear-gradient-28" x1="502.02" y1="711.98" x2="589.21" y2="711.98" xlink:href="#linear-gradient"/><linearGradient id="linear-gradient-29" x1="502.02" y1="836.94" x2="589.21" y2="836.94" xlink:href="#linear-gradient"/><linearGradient id="linear-gradient-30" x1="502.02" y1="961.89" x2="589.21" y2="961.89" xlink:href="#linear-gradient"/><linearGradient id="linear-gradient-31" x1="502.02" y1="1086.85" x2="589.21" y2="1086.85" xlink:href="#linear-gradient"/><linearGradient id="linear-gradient-32" x1="502.02" y1="1211.81" x2="589.21" y2="1211.81" xlink:href="#linear-gradient"/><linearGradient id="linear-gradient-33" x1="502.02" y1="1336.77" x2="589.21" y2="1336.77" xlink:href="#linear-gradient"/><linearGradient id="linear-gradient-34" x1="731.89" x2="819.08" xlink:href="#linear-gradient"/><linearGradient id="linear-gradient-35" x1="731.89" y1="212.15" x2="819.08" y2="212.15" xlink:href="#linear-gradient"/><linearGradient id="linear-gradient-36" x1="731.89" y1="337.11" x2="819.08" y2="337.11" xlink:href="#linear-gradient"/><linearGradient id="linear-gradient-37" x1="731.89" y1="462.06" x2="819.08" y2="462.06" xlink:href="#linear-gradient"/><linearGradient id="linear-gradient-38" x1="731.89" y1="587.02" x2="819.08" y2="587.02" xlink:href="#linear-gradient"/><linearGradient id="linear-gradient-39" x1="731.89" y1="711.98" x2="819.08" y2="711.98" xlink:href="#linear-gradient"/><linearGradient id="linear-gradient-40" x1="731.89" y1="836.94" x2="819.08" y2="836.94" xlink:href="#linear-gradient"/><linearGradient id="linear-gradient-41" x1="731.89" y1="961.89" x2="819.08" y2="961.89" xlink:href="#linear-gradient"/><linearGradient id="linear-gradient-42" x1="731.89" y1="1086.85" x2="819.08" y2="1086.85" xlink:href="#linear-gradient"/><linearGradient id="linear-gradient-43" x1="731.89" y1="1211.81" x2="819.08" y2="1211.81" xlink:href="#linear-gradient"/><linearGradient id="linear-gradient-44" x1="731.89" y1="1336.77" x2="819.08" y2="1336.77" xlink:href="#linear-gradient"/><linearGradient id="linear-gradient-45" x1="961.76" x2="1048.95" xlink:href="#linear-gradient"/><linearGradient id="linear-gradient-46" x1="961.76" y1="212.15" x2="1048.95" y2="212.15" xlink:href="#linear-gradient"/><linearGradient id="linear-gradient-47" x1="961.76" y1="337.11" x2="1048.95" y2="337.11" xlink:href="#linear-gradient"/><linearGradient id="linear-gradient-48" x1="961.76" y1="462.06" x2="1048.95" y2="462.06" xlink:href="#linear-gradient"/><linearGradient id="linear-gradient-49" x1="961.76" y1="587.02" x2="1048.95" y2="587.02" xlink:href="#linear-gradient"/><linearGradient id="linear-gradient-50" x1="961.76" y1="711.98" x2="1048.95" y2="711.98" xlink:href="#linear-gradient"/><linearGradient id="linear-gradient-51" x1="961.76" y1="836.94" x2="1048.95" y2="836.94" xlink:href="#linear-gradient"/><linearGradient id="linear-gradient-52" x1="961.76" y1="961.89" x2="1048.95" y2="961.89" xlink:href="#linear-gradient"/><linearGradient id="linear-gradient-53" x1="961.76" y1="1086.85" x2="1048.95" y2="1086.85" xlink:href="#linear-gradient"/><linearGradient id="linear-gradient-54" x1="961.76" y1="1211.81" x2="1048.95" y2="1211.81" xlink:href="#linear-gradient"/><linearGradient id="linear-gradient-55" x1="961.76" y1="1336.77" x2="1048.95" y2="1336.77" xlink:href="#linear-gradient"/><linearGradient id="linear-gradient-56" x1="1191.63" x2="1278.82" xlink:href="#linear-gradient"/><linearGradient id="linear-gradient-57" x1="1191.63" y1="212.15" x2="1278.82" y2="212.15" xlink:href="#linear-gradient"/><linearGradient id="linear-gradient-58" x1="1191.63" y1="337.11" x2="1278.82" y2="337.11" xlink:href="#linear-gradient"/><linearGradient id="linear-gradient-59" x1="1191.63" y1="462.06" x2="1278.82" y2="462.06" xlink:href="#linear-gradient"/><linearGradient id="linear-gradient-60" x1="1191.63" y1="587.02" x2="1278.82" y2="587.02" xlink:href="#linear-gradient"/><linearGradient id="linear-gradient-61" x1="1191.63" y1="711.98" x2="1278.82" y2="711.98" xlink:href="#linear-gradient"/><linearGradient id="linear-gradient-62" x1="1191.63" y1="836.94" x2="1278.82" y2="836.94" xlink:href="#linear-gradient"/><linearGradient id="linear-gradient-63" x1="1191.63" y1="961.89" x2="1278.82" y2="961.89" xlink:href="#linear-gradient"/><linearGradient id="linear-gradient-64" x1="1191.63" y1="1086.85" x2="1278.82" y2="1086.85" xlink:href="#linear-gradient"/><linearGradient id="linear-gradient-65" x1="1191.63" y1="1211.81" x2="1278.82" y2="1211.81" xlink:href="#linear-gradient"/><linearGradient id="linear-gradient-66" x1="1191.63" y1="1336.77" x2="1278.82" y2="1336.77" xlink:href="#linear-gradient"/><linearGradient id="linear-gradient-67" x1="1421.5" x2="1508.69" xlink:href="#linear-gradient"/><linearGradient id="linear-gradient-68" x1="1421.5" y1="212.15" x2="1508.69" y2="212.15" xlink:href="#linear-gradient"/><linearGradient id="linear-gradient-69" x1="1421.5" y1="337.11" x2="1508.69" y2="337.11" xlink:href="#linear-gradient"/><linearGradient id="linear-gradient-70" x1="1421.5" y1="462.06" x2="1508.69" y2="462.06" xlink:href="#linear-gradient"/><linearGradient id="linear-gradient-71" x1="1421.5" y1="587.02" x2="1508.69" y2="587.02" xlink:href="#linear-gradient"/><linearGradient id="linear-gradient-72" x1="1421.5" y1="711.98" x2="1508.69" y2="711.98" xlink:href="#linear-gradient"/><linearGradient id="linear-gradient-73" x1="1421.5" y1="836.94" x2="1508.69" y2="836.94" xlink:href="#linear-gradient"/><linearGradient id="linear-gradient-74" x1="1421.5" y1="961.89" x2="1508.69" y2="961.89" xlink:href="#linear-gradient"/><linearGradient id="linear-gradient-75" x1="1421.5" y1="1086.85" x2="1508.69" y2="1086.85" xlink:href="#linear-gradient"/><linearGradient id="linear-gradient-76" x1="1421.5" y1="1211.81" x2="1508.69" y2="1211.81" xlink:href="#linear-gradient"/><linearGradient id="linear-gradient-77" x1="1421.5" y1="1336.77" x2="1508.69" y2="1336.77" xlink:href="#linear-gradient"/><linearGradient id="linear-gradient-78" x1="1651.37" x2="1738.57" xlink:href="#linear-gradient"/><linearGradient id="linear-gradient-79" x1="1651.37" y1="212.15" x2="1738.57" y2="212.15" xlink:href="#linear-gradient"/><linearGradient id="linear-gradient-80" x1="1651.37" y1="337.11" x2="1738.57" y2="337.11" xlink:href="#linear-gradient"/><linearGradient id="linear-gradient-81" x1="1651.37" y1="462.06" x2="1738.57" y2="462.06" xlink:href="#linear-gradient"/><linearGradient id="linear-gradient-82" x1="1651.37" y1="587.02" x2="1738.57" y2="587.02" xlink:href="#linear-gradient"/><linearGradient id="linear-gradient-83" x1="1651.37" y1="711.98" x2="1738.57" y2="711.98" xlink:href="#linear-gradient"/><linearGradient id="linear-gradient-84" x1="1651.37" y1="836.94" x2="1738.57" y2="836.94" xlink:href="#linear-gradient"/><linearGradient id="linear-gradient-85" x1="1651.37" y1="961.89" x2="1738.57" y2="961.89" xlink:href="#linear-gradient"/><linearGradient id="linear-gradient-86" x1="1651.37" y1="1086.85" x2="1738.57" y2="1086.85" xlink:href="#linear-gradient"/><linearGradient id="linear-gradient-87" x1="1651.37" y1="1211.81" x2="1738.57" y2="1211.81" xlink:href="#linear-gradient"/><linearGradient id="linear-gradient-88" x1="1651.37" y1="1336.77" x2="1738.57" y2="1336.77" xlink:href="#linear-gradient"/><linearGradient id="linear-gradient-89" x1="1881.24" x2="1968.44" xlink:href="#linear-gradient"/><linearGradient id="linear-gradient-90" x1="1881.24" y1="212.15" x2="1968.44" y2="212.15" xlink:href="#linear-gradient"/><linearGradient id="linear-gradient-91" x1="1881.24" y1="337.11" x2="1968.44" y2="337.11" xlink:href="#linear-gradient"/><linearGradient id="linear-gradient-92" x1="1881.24" y1="462.06" x2="1968.44" y2="462.06" xlink:href="#linear-gradient"/><linearGradient id="linear-gradient-93" x1="1881.24" y1="587.02" x2="1968.44" y2="587.02" xlink:href="#linear-gradient"/><linearGradient id="linear-gradient-94" x1="1881.24" y1="711.98" x2="1968.44" y2="711.98" xlink:href="#linear-gradient"/><linearGradient id="linear-gradient-95" x1="1881.24" y1="836.94" x2="1968.44" y2="836.94" xlink:href="#linear-gradient"/><linearGradient id="linear-gradient-96" x1="1881.24" y1="961.89" x2="1968.44" y2="961.89" xlink:href="#linear-gradient"/><linearGradient id="linear-gradient-97" x1="1881.24" y1="1086.85" x2="1968.44" y2="1086.85" xlink:href="#linear-gradient"/><linearGradient id="linear-gradient-98" x1="1881.24" y1="1211.81" x2="1968.44" y2="1211.81" xlink:href="#linear-gradient"/><linearGradient id="linear-gradient-99" x1="1881.24" y1="1336.77" x2="1968.44" y2="1336.77" xlink:href="#linear-gradient"/><linearGradient id="linear-gradient-100" x1="163.04" y1="43.6" x2="250.23" y2="43.6" xlink:href="#linear-gradient"/><linearGradient id="linear-gradient-101" x1="163.04" y1="168.55" x2="250.23" y2="168.55" xlink:href="#linear-gradient"/><linearGradient id="linear-gradient-102" x1="163.04" y1="293.51" x2="250.23" y2="293.51" xlink:href="#linear-gradient"/><linearGradient id="linear-gradient-103" x1="163.04" y1="418.47" x2="250.23" y2="418.47" xlink:href="#linear-gradient"/><linearGradient id="linear-gradient-104" x1="163.04" y1="543.43" x2="250.23" y2="543.43" xlink:href="#linear-gradient"/><linearGradient id="linear-gradient-105" x1="163.04" y1="668.38" x2="250.23" y2="668.38" xlink:href="#linear-gradient"/><linearGradient id="linear-gradient-106" x1="163.04" y1="793.34" x2="250.23" y2="793.34" xlink:href="#linear-gradient"/><linearGradient id="linear-gradient-107" x1="163.04" y1="918.3" x2="250.23" y2="918.3" xlink:href="#linear-gradient"/><linearGradient id="linear-gradient-108" x1="163.04" y1="1043.25" x2="250.23" y2="1043.25" xlink:href="#linear-gradient"/><linearGradient id="linear-gradient-109" x1="163.04" y1="1168.21" x2="250.23" y2="1168.21" xlink:href="#linear-gradient"/><linearGradient id="linear-gradient-110" x1="163.04" y1="1293.17" x2="250.23" y2="1293.17" xlink:href="#linear-gradient"/><linearGradient id="linear-gradient-111" x1="392.91" y1="43.6" x2="480.1" y2="43.6" xlink:href="#linear-gradient"/><linearGradient id="linear-gradient-112" x1="392.91" y1="168.55" x2="480.1" y2="168.55" xlink:href="#linear-gradient"/><linearGradient id="linear-gradient-113" x1="392.91" y1="293.51" x2="480.1" y2="293.51" xlink:href="#linear-gradient"/><linearGradient id="linear-gradient-114" x1="392.91" y1="418.47" x2="480.1" y2="418.47" xlink:href="#linear-gradient"/><linearGradient id="linear-gradient-115" x1="392.91" y1="543.43" x2="480.1" y2="543.43" xlink:href="#linear-gradient"/><linearGradient id="linear-gradient-116" x1="392.91" y1="668.38" x2="480.1" y2="668.38" xlink:href="#linear-gradient"/><linearGradient id="linear-gradient-117" x1="392.91" y1="793.34" x2="480.1" y2="793.34" xlink:href="#linear-gradient"/><linearGradient id="linear-gradient-118" x1="392.91" y1="918.3" x2="480.1" y2="918.3" xlink:href="#linear-gradient"/><linearGradient id="linear-gradient-119" x1="392.91" y1="1043.25" x2="480.1" y2="1043.25" xlink:href="#linear-gradient"/><linearGradient id="linear-gradient-120" x1="392.91" y1="1168.21" x2="480.1" y2="1168.21" xlink:href="#linear-gradient"/><linearGradient id="linear-gradient-121" x1="392.91" y1="1293.17" x2="480.1" y2="1293.17" xlink:href="#linear-gradient"/><linearGradient id="linear-gradient-122" x1="622.78" y1="43.6" x2="709.97" y2="43.6" xlink:href="#linear-gradient"/><linearGradient id="linear-gradient-123" x1="622.78" y1="168.55" x2="709.97" y2="168.55" xlink:href="#linear-gradient"/><linearGradient id="linear-gradient-124" x1="622.78" y1="293.51" x2="709.97" y2="293.51" xlink:href="#linear-gradient"/><linearGradient id="linear-gradient-125" x1="622.78" y1="418.47" x2="709.97" y2="418.47" xlink:href="#linear-gradient"/><linearGradient id="linear-gradient-126" x1="622.78" y1="543.43" x2="709.97" y2="543.43" xlink:href="#linear-gradient"/><linearGradient id="linear-gradient-127" x1="622.78" y1="668.38" x2="709.97" y2="668.38" xlink:href="#linear-gradient"/><linearGradient id="linear-gradient-128" x1="622.78" y1="793.34" x2="709.97" y2="793.34" xlink:href="#linear-gradient"/><linearGradient id="linear-gradient-129" x1="622.78" y1="918.3" x2="709.97" y2="918.3" xlink:href="#linear-gradient"/><linearGradient id="linear-gradient-130" x1="622.78" y1="1043.25" x2="709.97" y2="1043.25" xlink:href="#linear-gradient"/><linearGradient id="linear-gradient-131" x1="622.78" y1="1168.21" x2="709.97" y2="1168.21" xlink:href="#linear-gradient"/><linearGradient id="linear-gradient-132" x1="622.78" y1="1293.17" x2="709.97" y2="1293.17" xlink:href="#linear-gradient"/><linearGradient id="linear-gradient-133" x1="852.65" y1="43.6" x2="939.84" y2="43.6" xlink:href="#linear-gradient"/><linearGradient id="linear-gradient-134" x1="852.65" y1="168.55" x2="939.84" y2="168.55" xlink:href="#linear-gradient"/><linearGradient id="linear-gradient-135" x1="852.65" y1="293.51" x2="939.84" y2="293.51" xlink:href="#linear-gradient"/><linearGradient id="linear-gradient-136" x1="852.65" y1="418.47" x2="939.84" y2="418.47" xlink:href="#linear-gradient"/><linearGradient id="linear-gradient-137" x1="852.65" y1="543.43" x2="939.84" y2="543.43" xlink:href="#linear-gradient"/><linearGradient id="linear-gradient-138" x1="852.65" y1="668.38" x2="939.84" y2="668.38" xlink:href="#linear-gradient"/><linearGradient id="linear-gradient-139" x1="852.65" y1="793.34" x2="939.84" y2="793.34" xlink:href="#linear-gradient"/><linearGradient id="linear-gradient-140" x1="852.65" y1="918.3" x2="939.84" y2="918.3" xlink:href="#linear-gradient"/><linearGradient id="linear-gradient-141" x1="852.65" y1="1043.25" x2="939.84" y2="1043.25" xlink:href="#linear-gradient"/><linearGradient id="linear-gradient-142" x1="852.65" y1="1168.21" x2="939.84" y2="1168.21" xlink:href="#linear-gradient"/><linearGradient id="linear-gradient-143" x1="852.65" y1="1293.17" x2="939.84" y2="1293.17" xlink:href="#linear-gradient"/><linearGradient id="linear-gradient-144" x1="1082.52" y1="43.6" x2="1169.71" y2="43.6" xlink:href="#linear-gradient"/><linearGradient id="linear-gradient-145" x1="1082.52" y1="168.55" x2="1169.71" y2="168.55" xlink:href="#linear-gradient"/><linearGradient id="linear-gradient-146" x1="1082.52" y1="293.51" x2="1169.71" y2="293.51" xlink:href="#linear-gradient"/><linearGradient id="linear-gradient-147" x1="1082.52" y1="418.47" x2="1169.71" y2="418.47" xlink:href="#linear-gradient"/><linearGradient id="linear-gradient-148" x1="1082.52" y1="543.43" x2="1169.71" y2="543.43" xlink:href="#linear-gradient"/><linearGradient id="linear-gradient-149" x1="1082.52" y1="668.38" x2="1169.71" y2="668.38" xlink:href="#linear-gradient"/><linearGradient id="linear-gradient-150" x1="1082.52" y1="793.34" x2="1169.71" y2="793.34" xlink:href="#linear-gradient"/><linearGradient id="linear-gradient-151" x1="1082.52" y1="918.3" x2="1169.71" y2="918.3" xlink:href="#linear-gradient"/><linearGradient id="linear-gradient-152" x1="1082.52" y1="1043.25" x2="1169.71" y2="1043.25" xlink:href="#linear-gradient"/><linearGradient id="linear-gradient-153" x1="1082.52" y1="1168.21" x2="1169.71" y2="1168.21" xlink:href="#linear-gradient"/><linearGradient id="linear-gradient-154" x1="1082.52" y1="1293.17" x2="1169.71" y2="1293.17" xlink:href="#linear-gradient"/><linearGradient id="linear-gradient-155" x1="1312.39" y1="43.6" x2="1399.58" y2="43.6" xlink:href="#linear-gradient"/><linearGradient id="linear-gradient-156" x1="1312.39" y1="168.55" x2="1399.58" y2="168.55" xlink:href="#linear-gradient"/><linearGradient id="linear-gradient-157" x1="1312.39" y1="293.51" x2="1399.58" y2="293.51" xlink:href="#linear-gradient"/><linearGradient id="linear-gradient-158" x1="1312.39" y1="418.47" x2="1399.58" y2="418.47" xlink:href="#linear-gradient"/><linearGradient id="linear-gradient-159" x1="1312.39" y1="543.43" x2="1399.58" y2="543.43" xlink:href="#linear-gradient"/><linearGradient id="linear-gradient-160" x1="1312.39" y1="668.38" x2="1399.58" y2="668.38" xlink:href="#linear-gradient"/><linearGradient id="linear-gradient-161" x1="1312.39" y1="793.34" x2="1399.58" y2="793.34" xlink:href="#linear-gradient"/><linearGradient id="linear-gradient-162" x1="1312.39" y1="918.3" x2="1399.58" y2="918.3" xlink:href="#linear-gradient"/><linearGradient id="linear-gradient-163" x1="1312.39" y1="1043.25" x2="1399.58" y2="1043.25" xlink:href="#linear-gradient"/><linearGradient id="linear-gradient-164" x1="1312.39" y1="1168.21" x2="1399.58" y2="1168.21" xlink:href="#linear-gradient"/><linearGradient id="linear-gradient-165" x1="1312.39" y1="1293.17" x2="1399.58" y2="1293.17" xlink:href="#linear-gradient"/><linearGradient id="linear-gradient-166" x1="1542.26" y1="43.6" x2="1629.45" y2="43.6" xlink:href="#linear-gradient"/><linearGradient id="linear-gradient-167" x1="1542.26" y1="168.55" x2="1629.45" y2="168.55" xlink:href="#linear-gradient"/><linearGradient id="linear-gradient-168" x1="1542.26" y1="293.51" x2="1629.45" y2="293.51" xlink:href="#linear-gradient"/><linearGradient id="linear-gradient-169" x1="1542.26" y1="418.47" x2="1629.45" y2="418.47" xlink:href="#linear-gradient"/><linearGradient id="linear-gradient-170" x1="1542.26" y1="543.43" x2="1629.45" y2="543.43" xlink:href="#linear-gradient"/><linearGradient id="linear-gradient-171" x1="1542.26" y1="668.38" x2="1629.45" y2="668.38" xlink:href="#linear-gradient"/><linearGradient id="linear-gradient-172" x1="1542.26" y1="793.34" x2="1629.45" y2="793.34" xlink:href="#linear-gradient"/><linearGradient id="linear-gradient-173" x1="1542.26" y1="918.3" x2="1629.45" y2="918.3" xlink:href="#linear-gradient"/><linearGradient id="linear-gradient-174" x1="1542.26" y1="1043.25" x2="1629.45" y2="1043.25" xlink:href="#linear-gradient"/><linearGradient id="linear-gradient-175" x1="1542.26" y1="1168.21" x2="1629.45" y2="1168.21" xlink:href="#linear-gradient"/><linearGradient id="linear-gradient-176" x1="1542.26" y1="1293.17" x2="1629.45" y2="1293.17" xlink:href="#linear-gradient"/><linearGradient id="linear-gradient-177" x1="1772.13" y1="43.6" x2="1859.33" y2="43.6" xlink:href="#linear-gradient"/><linearGradient id="linear-gradient-178" x1="1772.13" y1="168.55" x2="1859.33" y2="168.55" xlink:href="#linear-gradient"/><linearGradient id="linear-gradient-179" x1="1772.13" y1="293.51" x2="1859.33" y2="293.51" xlink:href="#linear-gradient"/><linearGradient id="linear-gradient-180" x1="1772.13" y1="418.47" x2="1859.33" y2="418.47" xlink:href="#linear-gradient"/><linearGradient id="linear-gradient-181" x1="1772.13" y1="543.43" x2="1859.33" y2="543.43" xlink:href="#linear-gradient"/><linearGradient id="linear-gradient-182" x1="1772.13" y1="668.38" x2="1859.33" y2="668.38" xlink:href="#linear-gradient"/><linearGradient id="linear-gradient-183" x1="1772.13" y1="793.34" x2="1859.33" y2="793.34" xlink:href="#linear-gradient"/><linearGradient id="linear-gradient-184" x1="1772.13" y1="918.3" x2="1859.33" y2="918.3" xlink:href="#linear-gradient"/><linearGradient id="linear-gradient-185" x1="1772.13" y1="1043.25" x2="1859.33" y2="1043.25" xlink:href="#linear-gradient"/><linearGradient id="linear-gradient-186" x1="1772.13" y1="1168.21" x2="1859.33" y2="1168.21" xlink:href="#linear-gradient"/><linearGradient id="linear-gradient-187" x1="1772.13" y1="1293.17" x2="1859.33" y2="1293.17" xlink:href="#linear-gradient"/><linearGradient id="linear-gradient-188" x1="2002" y1="43.6" x2="2089.2" y2="43.6" xlink:href="#linear-gradient"/><linearGradient id="linear-gradient-189" x1="2002" y1="168.55" x2="2089.2" y2="168.55" xlink:href="#linear-gradient"/><linearGradient id="linear-gradient-190" x1="2002" y1="293.51" x2="2089.2" y2="293.51" xlink:href="#linear-gradient"/><linearGradient id="linear-gradient-191" x1="2002" y1="418.47" x2="2089.2" y2="418.47" xlink:href="#linear-gradient"/><linearGradient id="linear-gradient-192" x1="2002" y1="543.43" x2="2089.2" y2="543.43" xlink:href="#linear-gradient"/><linearGradient id="linear-gradient-193" x1="2002" y1="668.38" x2="2089.2" y2="668.38" xlink:href="#linear-gradient"/><linearGradient id="linear-gradient-194" x1="2002" y1="793.34" x2="2089.2" y2="793.34" xlink:href="#linear-gradient"/><linearGradient id="linear-gradient-195" x1="2002" y1="918.3" x2="2089.2" y2="918.3" xlink:href="#linear-gradient"/><linearGradient id="linear-gradient-196" x1="2002" y1="1043.25" x2="2089.2" y2="1043.25" xlink:href="#linear-gradient"/><linearGradient id="linear-gradient-197" x1="2002" y1="1168.21" x2="2089.2" y2="1168.21" xlink:href="#linear-gradient"/><linearGradient id="linear-gradient-198" x1="2002" y1="1293.17" x2="2089.2" y2="1293.17" xlink:href="#linear-gradient"/><linearGradient id="linear-gradient-199" x1="70" y1="693.04" x2="2159.2" y2="693.04" gradientUnits="userSpaceOnUse"><stop offset="0" stop-color="#fff" stop-opacity="0"/><stop offset=".05" stop-color="#fff" stop-opacity=".12"/><stop offset=".19" stop-color="#fff" stop-opacity=".38"/><stop offset=".32" stop-color="#fff" stop-opacity=".6"/><stop offset=".43" stop-color="#fff" stop-opacity=".77"/><stop offset=".54" stop-color="#fff" stop-opacity=".9"/><stop offset=".62" stop-color="#fff" stop-opacity=".97"/><stop offset=".68" stop-color="#fff"/></linearGradient></defs><g id="Layer_1-2"><g class="cls-3"><rect class="cls-4" y="68.16" width="2089.2" height="1249.76"/><circle class="cls-2" cx="85.87" cy="87.19" r="43.6"/><circle class="cls-109" cx="85.87" cy="212.15" r="43.6"/><circle class="cls-107" cx="85.87" cy="337.11" r="43.6"/><circle class="cls-108" cx="85.87" cy="462.06" r="43.6"/><circle class="cls-112" cx="85.87" cy="587.02" r="43.6"/><circle class="cls-110" cx="85.87" cy="711.98" r="43.6"/><circle class="cls-111" cx="85.87" cy="836.94" r="43.6"/><circle class="cls-105" cx="85.87" cy="961.89" r="43.6"/><circle class="cls-106" cx="85.87" cy="1086.85" r="43.6"/><circle class="cls-185" cx="85.87" cy="1211.81" r="43.6"/><circle class="cls-186" cx="85.87" cy="1336.77" r="43.6"/><circle class="cls-184" cx="315.74" cy="87.19" r="43.6"/><circle class="cls-183" cx="315.74" cy="212.15" r="43.6"/><circle class="cls-173" cx="315.74" cy="337.11" r="43.6"/><circle class="cls-179" cx="315.74" cy="462.06" r="43.6"/><circle class="cls-181" cx="315.74" cy="587.02" r="43.6"/><circle class="cls-182" cx="315.74" cy="711.98" r="43.6"/><circle class="cls-174" cx="315.74" cy="836.94" r="43.6"/><circle class="cls-180" cx="315.74" cy="961.89" r="43.6"/><circle class="cls-176" cx="315.74" cy="1086.85" r="43.6"/><circle class="cls-177" cx="315.74" cy="1211.81" r="43.6"/><circle class="cls-175" cx="315.74" cy="1336.77" r="43.6"/><circle class="cls-178" cx="545.61" cy="87.19" r="43.6"/><circle class="cls-188" cx="545.61" cy="212.15" r="43.6"/><circle class="cls-196" cx="545.61" cy="337.11" r="43.6"/><circle class="cls-189" cx="545.61" cy="462.06" r="43.6"/><circle class="cls-187" cx="545.61" cy="587.02" r="43.6"/><circle class="cls-197" cx="545.61" cy="711.98" r="43.6"/><circle class="cls-198" cx="545.61" cy="836.94" r="43.6"/><circle class="cls-200" cx="545.61" cy="961.89" r="43.6"/><circle class="cls-202" cx="545.61" cy="1086.85" r="43.6"/><circle class="cls-201" cx="545.61" cy="1211.81" r="43.6"/><circle class="cls-199" cx="545.61" cy="1336.77" r="43.6"/><circle class="cls-193" cx="775.48" cy="87.19" r="43.6"/><circle class="cls-191" cx="775.48" cy="212.15" r="43.6"/><circle class="cls-195" cx="775.48" cy="337.11" r="43.6"/><circle class="cls-192" cx="775.48" cy="462.06" r="43.6"/><circle class="cls-190" cx="775.48" cy="587.02" r="43.6"/><circle class="cls-194" cx="775.48" cy="711.98" r="43.6"/><circle class="cls-164" cx="775.48" cy="836.94" r="43.6"/><circle class="cls-163" cx="775.48" cy="961.89" r="43.6"/><circle class="cls-166" cx="775.48" cy="1086.85" r="43.6"/><circle class="cls-165" cx="775.48" cy="1211.81" r="43.6"/><circle class="cls-169" cx="775.48" cy="1336.77" r="43.6"/><circle class="cls-167" cx="1005.36" cy="87.19" r="43.6"/><circle class="cls-168" cx="1005.36" cy="212.15" r="43.6"/><circle class="cls-171" cx="1005.36" cy="337.11" r="43.6"/><circle class="cls-172" cx="1005.36" cy="462.06" r="43.6"/><circle class="cls-170" cx="1005.36" cy="587.02" r="43.6"/><circle class="cls-122" cx="1005.36" cy="711.98" r="43.6"/><circle class="cls-120" cx="1005.36" cy="836.94" r="43.6"/><circle class="cls-121" cx="1005.36" cy="961.89" r="43.6"/><circle class="cls-118" cx="1005.36" cy="1086.85" r="43.6"/><circle class="cls-119" cx="1005.36" cy="1211.81" r="43.6"/><circle class="cls-116" cx="1005.36" cy="1336.77" r="43.6"/><circle class="cls-117" cx="1235.23" cy="87.19" r="43.6"/><circle class="cls-114" cx="1235.23" cy="212.15" r="43.6"/><circle class="cls-115" cx="1235.23" cy="337.11" r="43.6"/><circle class="cls-113" cx="1235.23" cy="462.06" r="43.6"/><circle class="cls-140" cx="1235.23" cy="587.02" r="43.6"/><circle class="cls-142" cx="1235.23" cy="711.98" r="43.6"/><circle class="cls-141" cx="1235.23" cy="836.94" r="43.6"/><circle class="cls-137" cx="1235.23" cy="961.89" r="43.6"/><circle class="cls-136" cx="1235.23" cy="1086.85" r="43.6"/><circle class="cls-139" cx="1235.23" cy="1211.81" r="43.6"/><circle class="cls-138" cx="1235.23" cy="1336.77" r="43.6"/><circle class="cls-134" cx="1465.1" cy="87.19" r="43.6"/><circle class="cls-133" cx="1465.1" cy="212.15" r="43.6"/><circle class="cls-135" cx="1465.1" cy="337.11" r="43.6"/><circle class="cls-129" cx="1465.1" cy="462.06" r="43.6"/><circle class="cls-130" cx="1465.1" cy="587.02" r="43.6"/><circle class="cls-131" cx="1465.1" cy="711.98" r="43.6"/><circle class="cls-132" cx="1465.1" cy="836.94" r="43.6"/><circle class="cls-126" cx="1465.1" cy="961.89" r="43.6"/><circle class="cls-127" cx="1465.1" cy="1086.85" r="43.6"/><circle class="cls-128" cx="1465.1" cy="1211.81" r="43.6"/><circle class="cls-123" cx="1465.1" cy="1336.77" r="43.6"/><circle class="cls-124" cx="1694.97" cy="87.19" r="43.6"/><circle class="cls-125" cx="1694.97" cy="212.15" r="43.6"/><circle class="cls-154" cx="1694.97" cy="337.11" r="43.6"/><circle class="cls-153" cx="1694.97" cy="462.06" r="43.6"/><circle class="cls-162" cx="1694.97" cy="587.02" r="43.6"/><circle class="cls-161" cx="1694.97" cy="711.98" r="43.6"/><circle class="cls-160" cx="1694.97" cy="836.94" r="43.6"/><circle class="cls-159" cx="1694.97" cy="961.89" r="43.6"/><circle class="cls-158" cx="1694.97" cy="1086.85" r="43.6"/><circle class="cls-157" cx="1694.97" cy="1211.81" r="43.6"/><circle class="cls-155" cx="1694.97" cy="1336.77" r="43.6"/><circle class="cls-156" cx="1924.84" cy="87.19" r="43.6"/><circle class="cls-152" cx="1924.84" cy="212.15" r="43.6"/><circle class="cls-144" cx="1924.84" cy="337.11" r="43.6"/><circle class="cls-150" cx="1924.84" cy="462.06" r="43.6"/><circle class="cls-151" cx="1924.84" cy="587.02" r="43.6"/><circle class="cls-149" cx="1924.84" cy="711.98" r="43.6"/><circle class="cls-145" cx="1924.84" cy="836.94" r="43.6"/><circle class="cls-147" cx="1924.84" cy="961.89" r="43.6"/><circle class="cls-148" cx="1924.84" cy="1086.85" r="43.6"/><circle class="cls-143" cx="1924.84" cy="1211.81" r="43.6"/><circle class="cls-146" cx="1924.84" cy="1336.77" r="43.6"/><circle class="cls-53" cx="206.63" cy="43.6" r="43.6"/><circle class="cls-52" cx="206.63" cy="168.55" r="43.6"/><circle class="cls-46" cx="206.63" cy="293.51" r="43.6"/><circle class="cls-45" cx="206.63" cy="418.47" r="43.6"/><circle class="cls-44" cx="206.63" cy="543.43" r="43.6"/><circle class="cls-47" cx="206.63" cy="668.38" r="43.6"/><circle class="cls-40" cx="206.63" cy="793.34" r="43.6"/><circle class="cls-41" cx="206.63" cy="918.3" r="43.6"/><circle class="cls-43" cx="206.63" cy="1043.25" r="43.6"/><circle class="cls-42" cx="206.63" cy="1168.21" r="43.6"/><circle class="cls-34" cx="206.63" cy="1293.17" r="43.6"/><circle class="cls-30" cx="436.5" cy="43.6" r="43.6"/><circle class="cls-31" cx="436.5" cy="168.55" r="43.6"/><circle class="cls-35" cx="436.5" cy="293.51" r="43.6"/><circle class="cls-36" cx="436.5" cy="418.47" r="43.6"/><circle class="cls-37" cx="436.5" cy="543.43" r="43.6"/><circle class="cls-38" cx="436.5" cy="668.38" r="43.6"/><circle class="cls-28" cx="436.5" cy="793.34" r="43.6"/><circle class="cls-29" cx="436.5" cy="918.3" r="43.6"/><circle class="cls-39" cx="436.5" cy="1043.25" r="43.6"/><circle class="cls-68" cx="436.5" cy="1168.21" r="43.6"/><circle class="cls-51" cx="436.5" cy="1293.17" r="43.6"/><circle class="cls-50" cx="666.37" cy="43.6" r="43.6"/><circle class="cls-48" cx="666.37" cy="168.55" r="43.6"/><circle class="cls-67" cx="666.37" cy="293.51" r="43.6"/><circle class="cls-66" cx="666.37" cy="418.47" r="43.6"/><circle class="cls-65" cx="666.37" cy="543.43" r="43.6"/><circle class="cls-32" cx="666.37" cy="668.38" r="43.6"/><circle class="cls-33" cx="666.37" cy="793.34" r="43.6"/><circle class="cls-49" cx="666.37" cy="918.3" r="43.6"/><circle class="cls-12" cx="666.37" cy="1043.25" r="43.6"/><circle class="cls-14" cx="666.37" cy="1168.21" r="43.6"/><circle class="cls-11" cx="666.37" cy="1293.17" r="43.6"/><circle class="cls-10" cx="896.24" cy="43.6" r="43.6"/><circle class="cls-16" cx="896.24" cy="168.55" r="43.6"/><circle class="cls-13" cx="896.24" cy="293.51" r="43.6"/><circle class="cls-15" cx="896.24" cy="418.47" r="43.6"/><circle class="cls-9" cx="896.24" cy="543.43" r="43.6"/><circle class="cls-18" cx="896.24" cy="668.38" r="43.6"/><circle class="cls-17" cx="896.24" cy="793.34" r="43.6"/><circle class="cls-95" cx="896.24" cy="918.3" r="43.6"/><circle class="cls-94" cx="896.24" cy="1043.25" r="43.6"/><circle class="cls-97" cx="896.24" cy="1168.21" r="43.6"/><circle class="cls-92" cx="896.24" cy="1293.17" r="43.6"/><circle class="cls-86" cx="1126.12" cy="43.6" r="43.6"/><circle class="cls-87" cx="1126.12" cy="168.55" r="43.6"/><circle class="cls-91" cx="1126.12" cy="293.51" r="43.6"/><circle class="cls-96" cx="1126.12" cy="418.47" r="43.6"/><circle class="cls-88" cx="1126.12" cy="543.43" r="43.6"/><circle class="cls-89" cx="1126.12" cy="668.38" r="43.6"/><circle class="cls-75" cx="1126.12" cy="793.34" r="43.6"/><circle class="cls-73" cx="1126.12" cy="918.3" r="43.6"/><circle class="cls-71" cx="1126.12" cy="1043.25" r="43.6"/><circle class="cls-76" cx="1126.12" cy="1168.21" r="43.6"/><circle class="cls-70" cx="1126.12" cy="1293.17" r="43.6"/><circle class="cls-72" cx="1355.99" cy="43.6" r="43.6"/><circle class="cls-74" cx="1355.99" cy="168.55" r="43.6"/><circle class="cls-69" cx="1355.99" cy="293.51" r="43.6"/><circle class="cls-85" cx="1355.99" cy="418.47" r="43.6"/><circle class="cls-84" cx="1355.99" cy="543.43" r="43.6"/><circle class="cls-83" cx="1355.99" cy="668.38" r="43.6"/><circle class="cls-78" cx="1355.99" cy="793.34" r="43.6"/><circle class="cls-82" cx="1355.99" cy="918.3" r="43.6"/><circle class="cls-79" cx="1355.99" cy="1043.25" r="43.6"/><circle class="cls-77" cx="1355.99" cy="1168.21" r="43.6"/><circle class="cls-80" cx="1355.99" cy="1293.17" r="43.6"/><circle class="cls-99" cx="1585.86" cy="43.6" r="43.6"/><circle class="cls-81" cx="1585.86" cy="168.55" r="43.6"/><circle class="cls-98" cx="1585.86" cy="293.51" r="43.6"/><circle class="cls-93" cx="1585.86" cy="418.47" r="43.6"/><circle class="cls-103" cx="1585.86" cy="543.43" r="43.6"/><circle class="cls-90" cx="1585.86" cy="668.38" r="43.6"/><circle class="cls-101" cx="1585.86" cy="793.34" r="43.6"/><circle class="cls-104" cx="1585.86" cy="918.3" r="43.6"/><circle class="cls-100" cx="1585.86" cy="1043.25" r="43.6"/><circle class="cls-102" cx="1585.86" cy="1168.21" r="43.6"/><circle class="cls-8" cx="1585.86" cy="1293.17" r="43.6"/><circle class="cls-7" cx="1815.73" cy="43.6" r="43.6"/><circle class="cls-6" cx="1815.73" cy="168.55" r="43.6"/><circle class="cls-5" cx="1815.73" cy="293.51" r="43.6"/><circle class="cls-27" cx="1815.73" cy="418.47" r="43.6"/><circle class="cls-22" cx="1815.73" cy="543.43" r="43.6"/><circle class="cls-20" cx="1815.73" cy="668.38" r="43.6"/><circle class="cls-21" cx="1815.73" cy="793.34" r="43.6"/><circle class="cls-25" cx="1815.73" cy="918.3" r="43.6"/><circle class="cls-26" cx="1815.73" cy="1043.25" r="43.6"/><circle class="cls-23" cx="1815.73" cy="1168.21" r="43.6"/><circle class="cls-24" cx="1815.73" cy="1293.17" r="43.6"/><circle class="cls-19" cx="2045.6" cy="43.6" r="43.6"/><circle class="cls-64" cx="2045.6" cy="168.55" r="43.6"/><circle class="cls-58" cx="2045.6" cy="293.51" r="43.6"/><circle class="cls-54" cx="2045.6" cy="418.47" r="43.6"/><circle class="cls-57" cx="2045.6" cy="543.43" r="43.6"/><circle class="cls-55" cx="2045.6" cy="668.38" r="43.6"/><circle class="cls-63" cx="2045.6" cy="793.34" r="43.6"/><circle class="cls-62" cx="2045.6" cy="918.3" r="43.6"/><circle class="cls-61" cx="2045.6" cy="1043.25" r="43.6"/><circle class="cls-60" cx="2045.6" cy="1168.21" r="43.6"/><circle class="cls-56" cx="2045.6" cy="1293.17" r="43.6"/><rect class="cls-59" x="70" y="68.16" width="2089.2" height="1249.76"/></g></g></svg>