<svg xmlns="http://www.w3.org/2000/svg" viewBox="0 0 461.16 461.16"><defs><style>.cls-1{fill:#231f20;}</style></defs><g id="Layer_2" data-name="Layer 2"><g id="Layer_1-2" data-name="Layer 1"><circle class="cls-1" cx="306.13" cy="305.46" r="10.58"/><circle class="cls-1" cx="155.2" cy="154.58" r="10.58"/><circle class="cls-1" cx="306.73" cy="153.29" r="10.58"/><circle class="cls-1" cx="155.85" cy="304.21" r="10.58"/><path class="cls-1" d="M155.85,287a17.23,17.23,0,0,1,10.79,30.68,108.27,108.27,0,0,0,127-.38,17.22,17.22,0,0,1,24.27-24.42,108.28,108.28,0,0,0,0-126.42,17.23,17.23,0,0,1-24.2-24.38,108.27,108.27,0,0,0-127.09-.4,17.23,17.23,0,1,1-24.38,24.24,108.32,108.32,0,0,0,.12,127.65A17.23,17.23,0,0,1,155.85,287Zm-28.76-56.61-3.44-.71h0A131.51,131.51,0,0,0,229.83,123.44h0l.71,3.44a131.51,131.51,0,0,0,102.06,102l3.44.71-3.44.72a131.5,131.5,0,0,0-102,102l-.72,3.45-.71-3.45A131.51,131.51,0,0,0,127.09,230.36Z"/><circle class="cls-1" cx="153.39" cy="418.23" r="4.24"/><circle class="cls-1" cx="308.07" cy="44.79" r="4.24"/><circle class="cls-1" cx="307.93" cy="417.07" r="4.24"/><circle class="cls-1" cx="153.25" cy="43.63" r="4.24"/><circle class="cls-1" cx="416.46" cy="308.44" r="4.24"/><circle class="cls-1" cx="43.01" cy="153.76" r="4.24"/><circle class="cls-1" cx="417.26" cy="153.42" r="4.24"/><circle class="cls-1" cx="43.82" cy="308.11" r="0.77"/><circle class="cls-1" cx="153.39" cy="418.23" r="5.29"/><circle class="cls-1" cx="308.07" cy="44.79" r="5.29"/><circle class="cls-1" cx="307.93" cy="417.07" r="5.29"/><circle class="cls-1" cx="153.25" cy="43.63" r="5.29"/><circle class="cls-1" cx="416.46" cy="308.44" r="5.29"/><circle class="cls-1" cx="43.01" cy="153.76" r="5.29"/><circle class="cls-1" cx="417.26" cy="153.42" r="5.08"/><circle class="cls-1" cx="43.82" cy="308.11" r="5.08"/><circle class="cls-1" cx="66.84" cy="389.85" r="3.18" transform="translate(-317.33 295.73) rotate(-66.51)"/><circle class="cls-1" cx="394.02" cy="73.83" r="3.18" transform="translate(169.23 405.76) rotate(-66.51)"/><circle class="cls-1" cx="226.86" cy="457.99" r="3.18" transform="translate(-283.6 483.46) rotate(-66.51)"/><circle class="cls-1" cx="234.76" cy="3.17" r="3.18" transform="translate(66.54 166.96) rotate(-45.01)"/><circle class="cls-1" cx="387.6" cy="394.56" r="3.18" transform="translate(-128.77 592.73) rotate(-66.51)"/><circle class="cls-1" cx="71.58" cy="67.38" r="3.18" transform="translate(-18.75 106.16) rotate(-66.51)"/><circle class="cls-1" cx="457.98" cy="234.93" r="3.18" transform="translate(59.95 561.29) rotate(-66.51)"/><circle class="cls-1" cx="3.17" cy="227.04" r="3.17"/><circle class="cls-1" cx="336.18" cy="125.74" r="8.47"/><circle class="cls-1" cx="124.7" cy="337.22" r="8.47"/><circle class="cls-1" cx="230.76" cy="82.25" r="8.47"/><circle class="cls-1" cx="230.76" cy="381.32" r="8.47"/><circle class="cls-1" cx="124.6" cy="125.64" r="8.47"/><circle class="cls-1" cx="336.08" cy="337.12" r="8.47"/><circle class="cls-1" cx="79.81" cy="230.72" r="8.47"/><circle class="cls-1" cx="378.89" cy="230.72" r="8.47"/></g></g></svg>