<svg xmlns="http://www.w3.org/2000/svg" viewBox="0 0 216.77 216.77"><defs><style>.cls-1{fill:#231f20;}</style></defs><g id="Layer_2" data-name="Layer 2"><g id="Layer_1-2" data-name="Layer 1"><circle class="cls-1" cx="184.67" cy="184.21" r="10.58"/><circle class="cls-1" cx="33.75" cy="33.34" r="10.58"/><circle class="cls-1" cx="185.27" cy="32.04" r="10.58"/><circle class="cls-1" cx="34.39" cy="182.97" r="10.58"/><path class="cls-1" d="M34.39,165.73a17.23,17.23,0,0,1,10.79,30.68,108.29,108.29,0,0,0,127-.39A17.22,17.22,0,0,1,196.4,171.6a108.26,108.26,0,0,0,0-126.41,17.23,17.23,0,0,1-24.2-24.39,108.29,108.29,0,0,0-127.09-.39A17.22,17.22,0,1,1,20.75,44.64a108.3,108.3,0,0,0,.12,127.66A17.16,17.16,0,0,1,34.39,165.73ZM5.63,109.12l-3.44-.72h0A131.5,131.5,0,0,0,108.37,2.19h0l.71,3.44a131.48,131.48,0,0,0,102.06,102l3.44.72-3.44.71a131.51,131.51,0,0,0-102,102.06l-.72,3.44-.71-3.44A131.51,131.51,0,0,0,5.63,109.12Z"/></g></g></svg>