<svg xmlns="http://www.w3.org/2000/svg" viewBox="0 0 340.65 65.18"><defs><style>.cls-1{fill:#231f20;}</style></defs><g id="Layer_2" data-name="Layer 2"><g id="Layer_1-2" data-name="Layer 1"><path class="cls-1" d="M0,63.74V5.67A5.67,5.67,0,0,1,5.67,0H42.85V11.23A1.72,1.72,0,0,1,41.12,13H14.85V25H39.59a1.73,1.73,0,0,1,1.73,1.74v8.85a1.73,1.73,0,0,1-1.73,1.74H14.85V50.6H42.74a1.73,1.73,0,0,1,1.73,1.74v11.4Z"/><path class="cls-1" d="M49.52,63.74V0H62.93a1.63,1.63,0,0,1,1.62,1.63V62.09a1.65,1.65,0,0,1-1.65,1.65Z"/><path class="cls-1" d="M116.14,41.86v1.8a15.68,15.68,0,0,1-.09,1.72H83.55a7.82,7.82,0,0,0,1.12,3.42,9.71,9.71,0,0,0,2.43,2.65,11.88,11.88,0,0,0,7.16,2.39,12.42,12.42,0,0,0,5.94-1.31,12,12,0,0,0,3-2.25,1.8,1.8,0,0,1,2.27-.29l7.36,4.65a1.72,1.72,0,0,1,.42,2.55,21.07,21.07,0,0,1-7.16,5.52,27.57,27.57,0,0,1-12,2.47,28.67,28.67,0,0,1-9.54-1.57A23,23,0,0,1,76.66,59a21.24,21.24,0,0,1-5.31-7.42A24.88,24.88,0,0,1,69.41,41.5a25.2,25.2,0,0,1,1.89-9.94A22.43,22.43,0,0,1,76.43,24a22.9,22.9,0,0,1,7.66-4.81,26.16,26.16,0,0,1,9.54-1.71,24.14,24.14,0,0,1,9.09,1.66A19.8,19.8,0,0,1,109.83,24a22.1,22.1,0,0,1,4.64,7.65A29.44,29.44,0,0,1,116.14,41.86Zm-13.6-5.67a8.85,8.85,0,0,0-2.2-6q-2.2-2.52-6.62-2.52a11.2,11.2,0,0,0-4,.67,10.27,10.27,0,0,0-3.15,1.85,9.14,9.14,0,0,0-2.16,2.75,8,8,0,0,0-.9,3.28Z"/><path class="cls-1" d="M178.08,63.74V39.25a23.88,23.88,0,0,0-.27-3.64,8.73,8.73,0,0,0-1-3,5.8,5.8,0,0,0-1.94-2,6,6,0,0,0-3.19-.76,6.42,6.42,0,0,0-3.29.81,7.31,7.31,0,0,0-2.34,2.16,9.49,9.49,0,0,0-1.4,3.11,14.58,14.58,0,0,0-.45,3.64V62a1.72,1.72,0,0,1-1.73,1.73h-13V38.17a10.74,10.74,0,0,0-1.53-6.12,5.47,5.47,0,0,0-4.87-2.25,6.24,6.24,0,0,0-5.44,2.79,11.71,11.71,0,0,0-1.94,6.84V62a1.72,1.72,0,0,1-1.73,1.73H120.82V20.43a1.52,1.52,0,0,1,1.52-1.52h11a1.79,1.79,0,0,1,1.79,1.79v4.42h.18a15.69,15.69,0,0,1,2-2.79,12.84,12.84,0,0,1,2.92-2.39,16.41,16.41,0,0,1,3.83-1.66,16.22,16.22,0,0,1,4.64-.63,16,16,0,0,1,8.23,2,13.52,13.52,0,0,1,5.27,5.67A17.07,17.07,0,0,1,168,19.72a16.6,16.6,0,0,1,8.56-2.07,16.11,16.11,0,0,1,7.69,1.66,14.33,14.33,0,0,1,5,4.32A17.94,17.94,0,0,1,192,29.57a25.57,25.57,0,0,1,.85,6.44V62a1.72,1.72,0,0,1-1.73,1.73Z"/><path class="cls-1" d="M244,41.86v1.8a15.68,15.68,0,0,1-.09,1.72h-32.5a7.82,7.82,0,0,0,1.12,3.42,9.71,9.71,0,0,0,2.43,2.65,12,12,0,0,0,3.34,1.76,11.73,11.73,0,0,0,3.82.63A12.42,12.42,0,0,0,228,52.53a12,12,0,0,0,3.05-2.29,1.74,1.74,0,0,1,2.18-.29l7.3,4.61a1.85,1.85,0,0,1,.44,2.73,20.91,20.91,0,0,1-7.07,5.42,27.57,27.57,0,0,1-12,2.47,28.67,28.67,0,0,1-9.54-1.57A23,23,0,0,1,204.5,59a21.24,21.24,0,0,1-5.31-7.42,24.88,24.88,0,0,1-1.94-10.09,25.2,25.2,0,0,1,1.89-9.94A22.45,22.45,0,0,1,204.28,24a22.86,22.86,0,0,1,7.65-4.81,26.16,26.16,0,0,1,9.54-1.71,24.14,24.14,0,0,1,9.09,1.66A19.84,19.84,0,0,1,237.68,24a22.23,22.23,0,0,1,4.63,7.65A29.44,29.44,0,0,1,244,41.86Zm-13.59-5.67a8.85,8.85,0,0,0-2.21-6q-2.2-2.52-6.62-2.52a11.2,11.2,0,0,0-4,.67,10.27,10.27,0,0,0-3.15,1.85,9.14,9.14,0,0,0-2.16,2.75,8,8,0,0,0-.9,3.28Z"/><path class="cls-1" d="M279.9,63.74a1.8,1.8,0,0,1-1.8-1.8V39.25a19.84,19.84,0,0,0-.32-3.6,9.89,9.89,0,0,0-1-3,5.48,5.48,0,0,0-2-2.08,6.5,6.5,0,0,0-3.28-.76,7.61,7.61,0,0,0-3.47.76,7,7,0,0,0-2.47,2.12A9.44,9.44,0,0,0,264,35.79a13.32,13.32,0,0,0-.49,3.64V63.74H250.38A1.72,1.72,0,0,1,248.66,62V18.91h12.55A1.76,1.76,0,0,1,263,20.67v4.45h.17a14.86,14.86,0,0,1,2.12-2.84,12.68,12.68,0,0,1,3.06-2.38,19.08,19.08,0,0,1,3.83-1.62,15.07,15.07,0,0,1,4.41-.63,16.57,16.57,0,0,1,7.65,1.62,14.63,14.63,0,0,1,5.09,4.18,16.5,16.5,0,0,1,2.79,5.9A26.68,26.68,0,0,1,293,36V63.74Z"/><path class="cls-1" d="M315.64,28.63V47.06a7.75,7.75,0,0,0,1.22,4.75c.81,1,2.26,1.58,4.36,1.58a15.76,15.76,0,0,0,2.3-.18,7.92,7.92,0,0,0,2-.54l.18,10.8a24.74,24.74,0,0,1-3.88,1,27.39,27.39,0,0,1-4.68.4,22.06,22.06,0,0,1-7.56-1.13,11.66,11.66,0,0,1-4.91-3.25,12.74,12.74,0,0,1-2.65-5,24.6,24.6,0,0,1-.81-6.54V28.63h-5.32A1.89,1.89,0,0,1,294,26.75v-9.1h7.12V0h12.78a1.7,1.7,0,0,1,1.71,1.7V17.65h8.83a1.71,1.71,0,0,1,1.71,1.7v9.28Z"/><path class="cls-1" d="M340.65,57.7A5.69,5.69,0,0,1,338.83,62a6,6,0,0,1-4.34,1.73A6.43,6.43,0,0,1,330.05,62a5.78,5.78,0,0,1-1.36-1.88,5.59,5.59,0,0,1-.49-2.37,5.68,5.68,0,0,1,.49-2.34,6,6,0,0,1,1.36-1.94,6.54,6.54,0,0,1,2-1.33,6.33,6.33,0,0,1,6.78,1.23A5.72,5.72,0,0,1,340.65,57.7Z"/></g></g></svg>